<mxfile host="app.diagrams.net" agent="Mozilla/5.0 (Macintosh; Intel Mac OS X 10_15_7) AppleWebKit/537.36 (KHTML, like Gecko) Chrome/133.0.0.0 Safari/537.36" version="26.0.10">
  <diagram name="Page-1" id="-H_mtQnk-PTXWXPvYvuk">
    <mxGraphModel dx="1314" dy="1596" grid="1" gridSize="10" guides="1" tooltips="1" connect="1" arrows="1" fold="1" page="1" pageScale="1" pageWidth="1169" pageHeight="827" math="0" shadow="0">
      <root>
        <mxCell id="0" />
        <mxCell id="1" parent="0" />
        <mxCell id="ajgmAdMeb5sdKrNxiMmH-26" value="" style="rounded=0;whiteSpace=wrap;html=1;dashed=1;fillColor=light-dark(#CCFFCC,var(--ge-dark-color, #121212));" parent="1" vertex="1">
          <mxGeometry x="481.25" y="450" width="182.5" height="170" as="geometry" />
        </mxCell>
        <mxCell id="ajgmAdMeb5sdKrNxiMmH-25" value="" style="rounded=0;whiteSpace=wrap;html=1;dashed=1;fillColor=light-dark(#CCFFCC,var(--ge-dark-color, #121212));" parent="1" vertex="1">
          <mxGeometry x="210" y="450" width="182.5" height="170" as="geometry" />
        </mxCell>
        <mxCell id="ajgmAdMeb5sdKrNxiMmH-24" style="rounded=0;orthogonalLoop=1;jettySize=auto;html=1;strokeColor=#001DBC;entryX=0;entryY=0.5;entryDx=0;entryDy=0;fillColor=#0050ef;" parent="1" target="ajgmAdMeb5sdKrNxiMmH-20" edge="1">
          <mxGeometry relative="1" as="geometry">
            <mxPoint x="652.5" y="170" as="targetPoint" />
            <mxPoint x="520" y="230" as="sourcePoint" />
          </mxGeometry>
        </mxCell>
        <mxCell id="ajgmAdMeb5sdKrNxiMmH-4" value="MongoDB&lt;div&gt;Slave&lt;/div&gt;&lt;div&gt;Shard1-2&lt;/div&gt;" style="shape=cylinder3;whiteSpace=wrap;html=1;boundedLbl=1;backgroundOutline=1;size=15;" parent="1" vertex="1">
          <mxGeometry x="232.5" y="510" width="60" height="80" as="geometry" />
        </mxCell>
        <mxCell id="ajgmAdMeb5sdKrNxiMmH-5" value="MongoDB&lt;div&gt;Slave&lt;/div&gt;&lt;div&gt;&lt;span style=&quot;background-color: transparent; color: light-dark(rgb(0, 0, 0), rgb(255, 255, 255));&quot;&gt;Shard1-3&lt;/span&gt;&lt;/div&gt;" style="shape=cylinder3;whiteSpace=wrap;html=1;boundedLbl=1;backgroundOutline=1;size=15;" parent="1" vertex="1">
          <mxGeometry x="312.5" y="510" width="60" height="80" as="geometry" />
        </mxCell>
        <mxCell id="ajgmAdMeb5sdKrNxiMmH-7" value="MongoDB&lt;div&gt;Slave&lt;/div&gt;&lt;div&gt;Shard2-2&lt;/div&gt;" style="shape=cylinder3;whiteSpace=wrap;html=1;boundedLbl=1;backgroundOutline=1;size=15;" parent="1" vertex="1">
          <mxGeometry x="502.5" y="510" width="60" height="80" as="geometry" />
        </mxCell>
        <mxCell id="ajgmAdMeb5sdKrNxiMmH-8" value="MongoDB&lt;div&gt;Slave&lt;/div&gt;&lt;div&gt;Shard2-3&lt;/div&gt;" style="shape=cylinder3;whiteSpace=wrap;html=1;boundedLbl=1;backgroundOutline=1;size=15;" parent="1" vertex="1">
          <mxGeometry x="587.5" y="510" width="60" height="80" as="geometry" />
        </mxCell>
        <mxCell id="ajgmAdMeb5sdKrNxiMmH-9" value="Shard1" style="text;html=1;align=center;verticalAlign=middle;whiteSpace=wrap;rounded=0;" parent="1" vertex="1">
          <mxGeometry x="272.5" y="590" width="60" height="30" as="geometry" />
        </mxCell>
        <mxCell id="ajgmAdMeb5sdKrNxiMmH-10" value="Shard2" style="text;html=1;align=center;verticalAlign=middle;whiteSpace=wrap;rounded=0;" parent="1" vertex="1">
          <mxGeometry x="542.5" y="590" width="60" height="30" as="geometry" />
        </mxCell>
        <mxCell id="zA23MoTUsTF4_91t8viU-2" value="MongoDB&lt;div&gt;Master&lt;/div&gt;&lt;div&gt;Shard1-1&lt;/div&gt;" style="shape=cylinder3;whiteSpace=wrap;html=1;boundedLbl=1;backgroundOutline=1;size=15;" parent="1" vertex="1">
          <mxGeometry x="272.5" y="460" width="60" height="80" as="geometry" />
        </mxCell>
        <mxCell id="ajgmAdMeb5sdKrNxiMmH-6" value="MongoDB&lt;div&gt;Master&lt;/div&gt;&lt;div&gt;Shard2-1&lt;/div&gt;" style="shape=cylinder3;whiteSpace=wrap;html=1;boundedLbl=1;backgroundOutline=1;size=15;" parent="1" vertex="1">
          <mxGeometry x="542.5" y="460" width="60" height="80" as="geometry" />
        </mxCell>
        <mxCell id="ajgmAdMeb5sdKrNxiMmH-20" value="Redis" style="rounded=0;whiteSpace=wrap;html=1;fillColor=light-dark(#99CCFF,var(--ge-dark-color, #121212));" parent="1" vertex="1">
          <mxGeometry x="623" y="200" width="100" height="50" as="geometry" />
        </mxCell>
        <mxCell id="ajgmAdMeb5sdKrNxiMmH-28" value="" style="endArrow=classic;html=1;rounded=0;fillColor=#0050ef;strokeColor=#001DBC;" parent="1" edge="1">
          <mxGeometry width="50" height="50" relative="1" as="geometry">
            <mxPoint x="840" y="34.5" as="sourcePoint" />
            <mxPoint x="910" y="34.5" as="targetPoint" />
          </mxGeometry>
        </mxCell>
        <mxCell id="ajgmAdMeb5sdKrNxiMmH-29" value="Вызовы кэша" style="text;html=1;align=left;verticalAlign=middle;whiteSpace=wrap;rounded=0;" parent="1" vertex="1">
          <mxGeometry x="920" y="20" width="120" height="30" as="geometry" />
        </mxCell>
        <mxCell id="ajgmAdMeb5sdKrNxiMmH-30" value="" style="endArrow=classic;html=1;rounded=0;fillColor=#d5e8d4;strokeColor=#82b366;gradientColor=#97d077;" parent="1" edge="1">
          <mxGeometry width="50" height="50" relative="1" as="geometry">
            <mxPoint x="840" y="64.5" as="sourcePoint" />
            <mxPoint x="910" y="64.5" as="targetPoint" />
          </mxGeometry>
        </mxCell>
        <mxCell id="ajgmAdMeb5sdKrNxiMmH-31" value="Вызовы базы" style="text;html=1;align=left;verticalAlign=middle;whiteSpace=wrap;rounded=0;" parent="1" vertex="1">
          <mxGeometry x="920" y="50" width="120" height="30" as="geometry" />
        </mxCell>
        <mxCell id="oLyJKer3nFaPY-tcrC4c-2" value="Конфигурационный сервер" style="rounded=0;whiteSpace=wrap;html=1;fillColor=light-dark(#CCFFCC,var(--ge-dark-color, #121212));" parent="1" vertex="1">
          <mxGeometry x="192.5" y="322.5" width="120" height="45" as="geometry" />
        </mxCell>
        <mxCell id="oLyJKer3nFaPY-tcrC4c-3" value="" style="edgeStyle=orthogonalEdgeStyle;rounded=0;orthogonalLoop=1;jettySize=auto;html=1;entryX=0.5;entryY=0;entryDx=0;entryDy=0;entryPerimeter=0;curved=1;fillColor=#d5e8d4;strokeColor=#82b366;exitX=0.5;exitY=1;exitDx=0;exitDy=0;gradientColor=#97d077;" parent="1" source="zA23MoTUsTF4_91t8viU-3" target="oLyJKer3nFaPY-tcrC4c-1" edge="1">
          <mxGeometry relative="1" as="geometry">
            <mxPoint x="440" y="250" as="sourcePoint" />
            <Array as="points" />
            <mxPoint x="573" y="460" as="targetPoint" />
          </mxGeometry>
        </mxCell>
        <mxCell id="oLyJKer3nFaPY-tcrC4c-5" style="edgeStyle=orthogonalEdgeStyle;rounded=0;orthogonalLoop=1;jettySize=auto;html=1;entryX=0.5;entryY=0;entryDx=0;entryDy=0;strokeColor=light-dark(#00CC00,#FFFFFF);" parent="1" source="oLyJKer3nFaPY-tcrC4c-1" target="ajgmAdMeb5sdKrNxiMmH-26" edge="1">
          <mxGeometry relative="1" as="geometry" />
        </mxCell>
        <mxCell id="oLyJKer3nFaPY-tcrC4c-6" style="edgeStyle=orthogonalEdgeStyle;rounded=0;orthogonalLoop=1;jettySize=auto;html=1;strokeColor=light-dark(#00CC00,#FFFFFF);" parent="1" source="oLyJKer3nFaPY-tcrC4c-1" target="oLyJKer3nFaPY-tcrC4c-2" edge="1">
          <mxGeometry relative="1" as="geometry" />
        </mxCell>
        <mxCell id="oLyJKer3nFaPY-tcrC4c-1" value="Роутер" style="rounded=0;whiteSpace=wrap;html=1;fillColor=light-dark(#CCFFCC,var(--ge-dark-color, #121212));" parent="1" vertex="1">
          <mxGeometry x="380" y="330" width="120" height="30" as="geometry" />
        </mxCell>
        <mxCell id="oLyJKer3nFaPY-tcrC4c-4" style="edgeStyle=orthogonalEdgeStyle;rounded=0;orthogonalLoop=1;jettySize=auto;html=1;entryX=0.444;entryY=0.012;entryDx=0;entryDy=0;entryPerimeter=0;strokeColor=light-dark(#00CC00,#FFFFFF);" parent="1" source="oLyJKer3nFaPY-tcrC4c-1" target="ajgmAdMeb5sdKrNxiMmH-25" edge="1">
          <mxGeometry relative="1" as="geometry" />
        </mxCell>
        <mxCell id="L3CAYWmtHA6VK5Pu4BKx-3" value="" style="group" vertex="1" connectable="0" parent="1">
          <mxGeometry x="380" y="180" width="140" height="80" as="geometry" />
        </mxCell>
        <mxCell id="zA23MoTUsTF4_91t8viU-3" value="pymongo-api" style="rounded=1;whiteSpace=wrap;html=1;" parent="L3CAYWmtHA6VK5Pu4BKx-3" vertex="1">
          <mxGeometry width="120" height="60" as="geometry" />
        </mxCell>
        <mxCell id="L3CAYWmtHA6VK5Pu4BKx-1" value="pymongo-api" style="rounded=1;whiteSpace=wrap;html=1;" vertex="1" parent="L3CAYWmtHA6VK5Pu4BKx-3">
          <mxGeometry x="10" y="10" width="120" height="60" as="geometry" />
        </mxCell>
        <mxCell id="L3CAYWmtHA6VK5Pu4BKx-2" value="pymongo-api" style="rounded=1;whiteSpace=wrap;html=1;" vertex="1" parent="L3CAYWmtHA6VK5Pu4BKx-3">
          <mxGeometry x="20" y="20" width="120" height="60" as="geometry" />
        </mxCell>
        <mxCell id="L3CAYWmtHA6VK5Pu4BKx-11" style="edgeStyle=orthogonalEdgeStyle;rounded=0;orthogonalLoop=1;jettySize=auto;html=1;fillColor=#6a00ff;strokeColor=#3700CC;entryX=0.5;entryY=0;entryDx=0;entryDy=0;" edge="1" parent="1" source="L3CAYWmtHA6VK5Pu4BKx-4" target="L3CAYWmtHA6VK5Pu4BKx-19">
          <mxGeometry relative="1" as="geometry" />
        </mxCell>
        <mxCell id="L3CAYWmtHA6VK5Pu4BKx-4" value="Actor" style="shape=umlActor;verticalLabelPosition=bottom;verticalAlign=top;html=1;outlineConnect=0;" vertex="1" parent="1">
          <mxGeometry x="327.5" y="-210" width="30" height="60" as="geometry" />
        </mxCell>
        <mxCell id="L3CAYWmtHA6VK5Pu4BKx-5" value="API" style="rounded=0;whiteSpace=wrap;html=1;" vertex="1" parent="1">
          <mxGeometry x="254" y="-5" width="177" height="45" as="geometry" />
        </mxCell>
        <mxCell id="L3CAYWmtHA6VK5Pu4BKx-6" value="Consul" style="rounded=0;whiteSpace=wrap;html=1;" vertex="1" parent="1">
          <mxGeometry x="623" y="-5" width="127" height="40" as="geometry" />
        </mxCell>
        <mxCell id="L3CAYWmtHA6VK5Pu4BKx-7" value="" style="endArrow=classic;html=1;rounded=0;exitX=0.5;exitY=0;exitDx=0;exitDy=0;entryX=0.5;entryY=1;entryDx=0;entryDy=0;strokeColor=light-dark(#FF0000,#FFFFFF);" edge="1" parent="1" source="zA23MoTUsTF4_91t8viU-3" target="L3CAYWmtHA6VK5Pu4BKx-6">
          <mxGeometry width="50" height="50" relative="1" as="geometry">
            <mxPoint x="560" y="120" as="sourcePoint" />
            <mxPoint x="610" y="70" as="targetPoint" />
          </mxGeometry>
        </mxCell>
        <mxCell id="L3CAYWmtHA6VK5Pu4BKx-8" value="" style="endArrow=classic;html=1;rounded=0;exitX=0.5;exitY=0;exitDx=0;exitDy=0;entryX=0.5;entryY=1;entryDx=0;entryDy=0;strokeColor=light-dark(#FF0000,#FFFFFF);" edge="1" parent="1" source="L3CAYWmtHA6VK5Pu4BKx-1" target="L3CAYWmtHA6VK5Pu4BKx-6">
          <mxGeometry width="50" height="50" relative="1" as="geometry">
            <mxPoint x="560" y="120" as="sourcePoint" />
            <mxPoint x="610" y="70" as="targetPoint" />
          </mxGeometry>
        </mxCell>
        <mxCell id="L3CAYWmtHA6VK5Pu4BKx-9" value="" style="endArrow=classic;html=1;rounded=0;exitX=0.5;exitY=0;exitDx=0;exitDy=0;entryX=0.5;entryY=1;entryDx=0;entryDy=0;strokeColor=light-dark(#FF0000,#FFFFFF);" edge="1" parent="1" source="L3CAYWmtHA6VK5Pu4BKx-2" target="L3CAYWmtHA6VK5Pu4BKx-6">
          <mxGeometry width="50" height="50" relative="1" as="geometry">
            <mxPoint x="560" y="120" as="sourcePoint" />
            <mxPoint x="610" y="70" as="targetPoint" />
          </mxGeometry>
        </mxCell>
        <mxCell id="L3CAYWmtHA6VK5Pu4BKx-10" value="" style="endArrow=classic;html=1;rounded=0;exitX=1;exitY=0.5;exitDx=0;exitDy=0;entryX=0;entryY=0.5;entryDx=0;entryDy=0;strokeColor=light-dark(#FF0000,#FFFFFF);" edge="1" parent="1" source="L3CAYWmtHA6VK5Pu4BKx-5" target="L3CAYWmtHA6VK5Pu4BKx-6">
          <mxGeometry width="50" height="50" relative="1" as="geometry">
            <mxPoint x="560" y="120" as="sourcePoint" />
            <mxPoint x="610" y="70" as="targetPoint" />
          </mxGeometry>
        </mxCell>
        <mxCell id="L3CAYWmtHA6VK5Pu4BKx-13" value="" style="endArrow=classic;html=1;rounded=0;entryX=0.167;entryY=-0.033;entryDx=0;entryDy=0;exitX=0.5;exitY=1;exitDx=0;exitDy=0;entryPerimeter=0;strokeColor=light-dark(#FF0000,#FFFFFF);" edge="1" parent="1" source="L3CAYWmtHA6VK5Pu4BKx-5" target="L3CAYWmtHA6VK5Pu4BKx-1">
          <mxGeometry width="50" height="50" relative="1" as="geometry">
            <mxPoint x="560" y="120" as="sourcePoint" />
            <mxPoint x="610" y="70" as="targetPoint" />
          </mxGeometry>
        </mxCell>
        <mxCell id="L3CAYWmtHA6VK5Pu4BKx-14" value="" style="endArrow=classic;html=1;rounded=0;exitX=0.5;exitY=1;exitDx=0;exitDy=0;entryX=0.133;entryY=0.05;entryDx=0;entryDy=0;entryPerimeter=0;strokeColor=light-dark(#FF0000,#FFFFFF);" edge="1" parent="1" source="L3CAYWmtHA6VK5Pu4BKx-5" target="zA23MoTUsTF4_91t8viU-3">
          <mxGeometry width="50" height="50" relative="1" as="geometry">
            <mxPoint x="560" y="120" as="sourcePoint" />
            <mxPoint x="610" y="70" as="targetPoint" />
          </mxGeometry>
        </mxCell>
        <mxCell id="L3CAYWmtHA6VK5Pu4BKx-15" value="" style="endArrow=classic;html=1;rounded=0;exitX=0.5;exitY=1;exitDx=0;exitDy=0;entryX=0.25;entryY=0;entryDx=0;entryDy=0;strokeColor=light-dark(#FF0000,#FFFFFF);" edge="1" parent="1" source="L3CAYWmtHA6VK5Pu4BKx-5" target="L3CAYWmtHA6VK5Pu4BKx-2">
          <mxGeometry width="50" height="50" relative="1" as="geometry">
            <mxPoint x="600" y="120" as="sourcePoint" />
            <mxPoint x="650" y="70" as="targetPoint" />
          </mxGeometry>
        </mxCell>
        <mxCell id="L3CAYWmtHA6VK5Pu4BKx-16" value="" style="endArrow=classic;html=1;rounded=0;strokeColor=light-dark(#FF0000,#FFFFFF);" edge="1" parent="1">
          <mxGeometry width="50" height="50" relative="1" as="geometry">
            <mxPoint x="840" y="94.5" as="sourcePoint" />
            <mxPoint x="910" y="94.5" as="targetPoint" />
          </mxGeometry>
        </mxCell>
        <mxCell id="L3CAYWmtHA6VK5Pu4BKx-17" value="Вызовы приложения" style="text;html=1;align=left;verticalAlign=middle;whiteSpace=wrap;rounded=0;" vertex="1" parent="1">
          <mxGeometry x="920" y="80" width="170" height="30" as="geometry" />
        </mxCell>
        <mxCell id="L3CAYWmtHA6VK5Pu4BKx-24" style="edgeStyle=orthogonalEdgeStyle;rounded=0;orthogonalLoop=1;jettySize=auto;html=1;" edge="1" parent="1" source="L3CAYWmtHA6VK5Pu4BKx-19">
          <mxGeometry relative="1" as="geometry">
            <mxPoint x="550" y="-90" as="targetPoint" />
          </mxGeometry>
        </mxCell>
        <mxCell id="L3CAYWmtHA6VK5Pu4BKx-19" value="Сайт&amp;nbsp;&lt;div&gt;React/Nginx&lt;/div&gt;" style="rounded=0;whiteSpace=wrap;html=1;" vertex="1" parent="1">
          <mxGeometry x="253" y="-110" width="177" height="40" as="geometry" />
        </mxCell>
        <mxCell id="L3CAYWmtHA6VK5Pu4BKx-22" value="" style="group" vertex="1" connectable="0" parent="1">
          <mxGeometry x="542.5" y="-150" width="140" height="100" as="geometry" />
        </mxCell>
        <mxCell id="L3CAYWmtHA6VK5Pu4BKx-18" value="" style="ellipse;shape=cloud;whiteSpace=wrap;html=1;" vertex="1" parent="L3CAYWmtHA6VK5Pu4BKx-22">
          <mxGeometry width="120" height="80" as="geometry" />
        </mxCell>
        <mxCell id="L3CAYWmtHA6VK5Pu4BKx-20" value="" style="ellipse;shape=cloud;whiteSpace=wrap;html=1;" vertex="1" parent="L3CAYWmtHA6VK5Pu4BKx-22">
          <mxGeometry x="10" y="10" width="120" height="80" as="geometry" />
        </mxCell>
        <mxCell id="L3CAYWmtHA6VK5Pu4BKx-21" value="CDN" style="ellipse;shape=cloud;whiteSpace=wrap;html=1;" vertex="1" parent="L3CAYWmtHA6VK5Pu4BKx-22">
          <mxGeometry x="20" y="20" width="120" height="80" as="geometry" />
        </mxCell>
        <mxCell id="L3CAYWmtHA6VK5Pu4BKx-23" value="" style="endArrow=classic;html=1;rounded=0;exitX=0.5;exitY=1;exitDx=0;exitDy=0;entryX=0.5;entryY=0;entryDx=0;entryDy=0;" edge="1" parent="1" source="L3CAYWmtHA6VK5Pu4BKx-19" target="L3CAYWmtHA6VK5Pu4BKx-5">
          <mxGeometry width="50" height="50" relative="1" as="geometry">
            <mxPoint x="480" y="120" as="sourcePoint" />
            <mxPoint x="530" y="70" as="targetPoint" />
          </mxGeometry>
        </mxCell>
        <mxCell id="L3CAYWmtHA6VK5Pu4BKx-25" value="" style="endArrow=classic;html=1;rounded=0;" edge="1" parent="1">
          <mxGeometry width="50" height="50" relative="1" as="geometry">
            <mxPoint x="840" y="10" as="sourcePoint" />
            <mxPoint x="910" y="10" as="targetPoint" />
          </mxGeometry>
        </mxCell>
        <mxCell id="L3CAYWmtHA6VK5Pu4BKx-26" value="Вызовы от клиентов" style="text;html=1;align=left;verticalAlign=middle;whiteSpace=wrap;rounded=0;" vertex="1" parent="1">
          <mxGeometry x="920" y="-5" width="120" height="30" as="geometry" />
        </mxCell>
      </root>
    </mxGraphModel>
  </diagram>
</mxfile>
